<!-- Generated by IcoMoon.io -->
<svg version="1.1" xmlns="http://www.w3.org/2000/svg" width="32" height="32" viewBox="0 0 32 32">
<title>brush</title>
<path d="M18.407 18.538l13.307-14.46c0.153-0.159 0.247-0.375 0.247-0.613 0-0.264-0.116-0.501-0.299-0.663l-0.001-0.001-2.553-2.556c-0.159-0.152-0.374-0.245-0.612-0.245s-0.453 0.094-0.612 0.246l0-0-14.462 13.307c-0.168 0.161-0.272 0.388-0.272 0.638s0.104 0.477 0.272 0.638l3.709 3.709c0.161 0.168 0.388 0.272 0.638 0.272s0.477-0.104 0.638-0.272l0-0zM10.796 16.569l4.631 4.647c0.283 0.259 0.481 0.608 0.549 1.001l0.002 0.011v0.87c0 0.007 0 0.015 0 0.023 0 1.958-0.793 3.732-2.076 5.016l0-0c-2.473 2.39-5.847 3.863-9.564 3.863-0.324 0-0.646-0.011-0.965-0.033l0.043 0.002c-0.007 0-0.015 0-0.023 0-1.185 0-2.276-0.4-3.146-1.073l0.012 0.009c-0.159-0.16-0.257-0.38-0.257-0.623 0-0.184 0.056-0.355 0.153-0.497l-0.002 0.003c0.993-1.58 1.582-3.501 1.582-5.559 0-0.075-0.001-0.15-0.002-0.225l0 0.011c-0.009-0.143-0.014-0.31-0.014-0.478 0-2.109 0.814-4.029 2.145-5.461l-0.005 0.005c1.284-1.282 3.057-2.075 5.016-2.075 0.002 0 0.003 0 0.005 0h-0c0.13-0.009 0.282-0.014 0.435-0.014s0.305 0.005 0.455 0.015l-0.021-0.001c0.415 0.079 0.774 0.281 1.046 0.566l0.001 0.001z"></path>
</svg>
