<!-- Generated by IcoMoon.io -->
<svg version="1.1" xmlns="http://www.w3.org/2000/svg" width="32" height="32" viewBox="0 0 32 32">
<title>circle</title>
<path d="M31.998 15.999c0 8.836-7.163 15.999-15.999 15.999s-15.999-7.163-15.999-15.999c0-8.836 7.163-15.999 15.999-15.999v0c8.836 0 15.999 7.163 15.999 15.999v0zM15.999 3c-7.179 0.001-12.998 5.821-12.998 12.999s5.82 12.999 12.999 12.999 12.999-5.82 12.999-12.999v0c0-0.001 0-0.001 0-0.002 0-7.178-5.819-12.998-12.998-12.998-0.001 0-0.003 0-0.004 0h0z"></path>
</svg>
