<!-- Generated by IcoMoon.io -->
<svg version="1.1" xmlns="http://www.w3.org/2000/svg" width="28" height="32" viewBox="0 0 28 32">
<title>copy</title>
<path d="M27.121 4.121l-3.243-3.243c-0.543-0.543-1.293-0.879-2.121-0.879h-10.757c-1.657 0-3 1.343-3 3v3h-5c-1.657 0-3 1.343-3 3v20c0 1.657 1.343 3 3 3h14c1.657 0 3-1.343 3-3v-3h5c1.657 0 3-1.343 3-3v-16.757c0-0.828-0.336-1.578-0.879-2.121v0zM16.625 29h-13.25c-0.207 0-0.375-0.168-0.375-0.375v0-19.25c0-0.207 0.168-0.375 0.375-0.375v0h4.625v14c0 1.657 1.343 3 3 3h6v2.625c0 0.207-0.168 0.375-0.375 0.375v0zM24.625 23h-13.25c-0.207 0-0.375-0.168-0.375-0.375v0-19.25c0-0.207 0.168-0.375 0.375-0.375v0h6.625v5.5c0 0.828 0.672 1.5 1.5 1.5h5.5v12.625c0 0.207-0.168 0.375-0.375 0.375v0zM25 7h-4v-4h0.602c0.099 0 0.195 0.039 0.265 0.11l3.023 3.023c0.068 0.068 0.11 0.162 0.11 0.265 0 0 0 0 0 0v0 0.602z"></path>
</svg>
