<!-- Generated by IcoMoon.io -->
<svg version="1.1" xmlns="http://www.w3.org/2000/svg" width="34" height="32" viewBox="0 0 34 32">
<title>eraser</title>
<path d="M1.060 23.643l7.823 7.823c0.328 0.33 0.783 0.534 1.284 0.534 0 0 0.001 0 0.001 0h21.841v-3.642h-12.662l13.143-13.143c0.658-0.659 1.065-1.569 1.065-2.574s-0.407-1.915-1.065-2.574l-9.010-9.009c-0.659-0.657-1.569-1.064-2.574-1.064s-1.914 0.406-2.574 1.064l-8.637 8.637-8.657 8.82c-0.642 0.658-1.039 1.558-1.039 2.551 0 1.004 0.405 1.913 1.061 2.573l-0-0zM20.907 3.636l9.009 9.009-4.711 4.711-9.003-9.014 4.711-4.711zM12.269 12.273l1.353-1.351 9.009 9.009-8.286 8.284c-0.043 0.044-0.084 0.091-0.123 0.14l-0.003 0.004h-3.294l-7.289-7.291 8.637-8.802z"></path>
</svg>
