<!-- Generated by IcoMoon.io -->
<svg version="1.1" xmlns="http://www.w3.org/2000/svg" width="32" height="32" viewBox="0 0 32 32">
<title>rectangle</title>
<path d="M27.428 0c2.524 0.002 4.569 2.048 4.57 4.572v22.856c-0.003 2.523-2.047 4.567-4.57 4.57h-22.856c-2.524-0.001-4.57-2.046-4.572-4.57v-22.856c0-2.525 2.047-4.572 4.572-4.572v0zM27.428 3.429h-22.856c-0.631 0-1.143 0.512-1.143 1.143v22.856c0.001 0.631 0.512 1.141 1.142 1.143h22.856c0.63-0.002 1.14-0.512 1.143-1.142v-22.856c-0.001-0.631-0.512-1.141-1.142-1.143h-0z"></path>
</svg>
