<!-- Generated by IcoMoon.io -->
<svg version="1.1" xmlns="http://www.w3.org/2000/svg" width="36" height="32" viewBox="0 0 36 32">
<title>triangle</title>
<path d="M36.161 29.271l-16.376-28.348c-0.319-0.555-0.908-0.922-1.583-0.922s-1.264 0.368-1.578 0.914l-0.005 0.009-16.376 28.348c-0.154 0.261-0.244 0.575-0.244 0.91 0 1.005 0.814 1.819 1.819 1.819 0.003 0 0.006 0 0.008-0h32.751c0.002 0 0.005 0 0.008 0 1.005 0 1.819-0.814 1.819-1.819 0-0.335-0.091-0.649-0.249-0.919l0.005 0.009zM4.974 28.36l13.229-22.889 13.229 22.889z"></path>
</svg>
