<!-- Generated by IcoMoon.io -->
<svg version="1.1" xmlns="http://www.w3.org/2000/svg" width="32" height="32" viewBox="0 0 32 32">
<title>upload</title>
<path fill="none" stroke-linejoin="round" stroke-linecap="round" stroke-miterlimit="10" stroke-width="1.28" stroke="#000" d="M20.48 22.4c0 0 5.32 0 5.823 0 2.794 0 5.057-2.264 5.057-5.057s-2.264-5.057-5.057-5.057c-0.013 0-0.024 0.002-0.037 0.002 0.039-0.316 0.066-0.636 0.066-0.963 0-4.294-3.481-7.776-7.776-7.776-3.347 0-6.19 2.118-7.287 5.082-0.696-0.697-1.658-1.129-2.721-1.129-2.124 0-3.846 1.722-3.846 3.845 0 0.054 0.006 0.107 0.008 0.161-2.346 0.648-4.070 2.792-4.070 5.343 0 3.064 2.484 5.548 5.549 5.548 0.529 0 5.331 0 5.331 0"></path>
<path fill="none" stroke-linejoin="miter" stroke-linecap="round" stroke-miterlimit="10" stroke-width="1.28" stroke="#000" d="M12.8 17.92l3.2-3.2 3.2 3.2"></path>
<path fill="none" stroke-linejoin="miter" stroke-linecap="round" stroke-miterlimit="10" stroke-width="1.28" stroke="#000" d="M16 27.52v-12.587"></path>
</svg>
